<?xml version="1.0" encoding="UTF-8" standalone="no"?>
<svg
   xmlns:osb="http://www.openswatchbook.org/uri/2009/osb"
   xmlns:dc="http://purl.org/dc/elements/1.1/"
   xmlns:cc="http://creativecommons.org/ns#"
   xmlns:rdf="http://www.w3.org/1999/02/22-rdf-syntax-ns#"
   xmlns:svg="http://www.w3.org/2000/svg"
   xmlns="http://www.w3.org/2000/svg"
   xmlns:sodipodi="http://sodipodi.sourceforge.net/DTD/sodipodi-0.dtd"
   xmlns:inkscape="http://www.inkscape.org/namespaces/inkscape"
   viewBox="0 0 75.590556 75.590556"
   version="1.1"
   id="svg12"
   sodipodi:docname="fin.svg"
   inkscape:version="0.92.1 r15371"
   width="20mm"
   height="20mm"
   style="enable-background:new">
  <metadata
     id="metadata18">
    <rdf:RDF>
      <cc:Work
         rdf:about="">
        <dc:format>image/svg+xml</dc:format>
        <dc:type
           rdf:resource="http://purl.org/dc/dcmitype/StillImage" />
        <dc:title></dc:title>
      </cc:Work>
    </rdf:RDF>
  </metadata>
  <defs
     id="defs16">
    <linearGradient
       id="linearGradient4545"
       osb:paint="gradient">
      <stop
         style="stop-color:#3b5998;stop-opacity:1;"
         offset="0"
         id="stop4541" />
      <stop
         style="stop-color:#3b5998;stop-opacity:0;"
         offset="1"
         id="stop4543" />
    </linearGradient>
  </defs>
  <sodipodi:namedview
     pagecolor="#ffffff"
     bordercolor="#666666"
     borderopacity="1"
     objecttolerance="10"
     gridtolerance="10"
     guidetolerance="10"
     inkscape:pageopacity="0"
     inkscape:pageshadow="2"
     inkscape:window-width="1920"
     inkscape:window-height="1017"
     id="namedview14"
     showgrid="false"
     inkscape:zoom="6.6406248"
     inkscape:cx="74.844041"
     inkscape:cy="28.991563"
     inkscape:window-x="-8"
     inkscape:window-y="-8"
     inkscape:window-maximized="1"
     inkscape:current-layer="layer3"
     fit-margin-top="10"
     fit-margin-left="0"
     fit-margin-right="0"
     fit-margin-bottom="0"
     units="in" />
  <g
     inkscape:groupmode="layer"
     id="layer3"
     inkscape:label="Layer 2"
     style="display:inline"
     transform="translate(0,37.795276)">
    <text
       xml:space="preserve"
       style="font-style:normal;font-variant:normal;font-weight:normal;font-stretch:normal;font-size:20.00677299px;line-height:1.25;font-family:'Comic Sans MS';-inkscape-font-specification:'Comic Sans MS';letter-spacing:0px;word-spacing:0px;fill:#ce0000;fill-opacity:1;stroke:none;stroke-width:1.15423691"
       x="-0.032430362"
       y="31.976267"
       id="text910"
       transform="matrix(0.68703669,-0.66177333,0.44117345,1.0305755,0,0)"><tspan
         sodipodi:role="line"
         id="tspan908"
         x="-0.032430362"
         y="31.976267"
         style="fill:#ce0000;fill-opacity:1;stroke-width:1.15423691">finished</tspan></text>
    <rect
       style="opacity:1;fill:none;fill-opacity:1;stroke:#e70000;stroke-width:0.82262468;stroke-opacity:1"
       id="rect912"
       width="81.573441"
       height="24.001957"
       x="-9.9139271"
       y="13.655852"
       transform="matrix(0.74689087,-0.66494663,0.57153377,0.82057854,0,0)" />
    <path
       style="opacity:1;fill:none;fill-opacity:1;stroke:#e70000;stroke-width:0.12343843;stroke-opacity:1"
       d="m 25.981034,21.511952 c -0.09785,-0.09023 -0.415972,-0.636566 -0.70695,-1.214071 -0.537334,-1.066449 -0.757459,-1.610502 -1.828452,-4.519121 -0.330426,-0.897381 -0.883793,-2.26961 -1.2297,-3.049398 -0.662449,-1.493375 -0.76235,-2.067148 -0.448204,-2.574224 0.387236,-0.6250507 0.921412,-0.2789344 1.538503,0.996863 l 0.333962,0.690448 0.140307,-1.133935 c 0.238518,-1.9276426 0.799258,-3.1768938 1.648979,-3.6736815 1.112664,-0.6505185 2.038033,0.2901804 3.425479,3.4822335 0.422963,0.973097 1.159781,2.466607 1.637373,3.318913 1.152356,2.056478 1.2689,2.39736 1.035529,3.028835 -0.196658,0.532132 -0.402853,0.677832 -0.799851,0.565179 -0.35455,-0.100609 -1.921623,-2.991921 -2.96283,-5.466546 -0.924312,-2.1968006 -1.304268,-2.7895579 -1.750231,-2.730479 -0.235595,0.031206 -0.375189,0.2048735 -0.644763,0.802113 -0.306663,0.679413 -0.349347,0.921965 -0.39266,2.231265 -0.08379,2.533036 0.280882,4.16545 1.52741,6.837227 0.56621,1.2136 0.623286,1.490645 0.403296,1.95763 -0.265824,0.564279 -0.618292,0.735628 -0.927197,0.450749 z"
       id="path914"
       inkscape:connector-curvature="0" />
    <path
       style="opacity:1;fill:none;fill-opacity:1;stroke:#e70000;stroke-width:0.12343843;stroke-opacity:1"
       d="m 26.028829,21.589597 c -0.272855,-0.124681 -1.408766,-2.611986 -2.358133,-5.163619 -0.52374,-1.407667 -1.206829,-3.134183 -1.517972,-3.836705 -0.598664,-1.351705 -0.691592,-1.939245 -0.384996,-2.434135 0.391622,-0.6321344 0.973406,-0.2695458 1.532603,0.955178 l 0.299642,0.656255 0.199014,-1.259184 c 0.303678,-1.9213918 0.805052,-2.9830608 1.642282,-3.4775681 1.095614,-0.6471198 2.029418,0.3046291 3.424068,3.4898681 0.426698,0.974538 1.136835,2.412605 1.578082,3.195703 1.008912,1.790561 1.274308,2.454485 1.173245,2.935027 -0.167434,0.796111 -0.756618,1.079074 -1.179158,0.566305 -0.41043,-0.498075 -2.000617,-3.627058 -2.738553,-5.388602 -1.118167,-2.6692084 -1.571632,-3.1221075 -2.15553,-2.1528501 -0.386908,0.6422581 -0.556347,1.4878901 -0.57682,2.8788061 -0.03422,2.324959 0.367441,4.039095 1.509767,6.443095 0.608315,1.280187 0.661358,1.566642 0.397072,2.144454 -0.212663,0.464944 -0.487941,0.610949 -0.844613,0.447972 z"
       id="path916"
       inkscape:connector-curvature="0" />
    <path
       style="opacity:1;fill:none;fill-opacity:1;stroke:#e70000;stroke-width:0.12343843;stroke-opacity:1"
       d="m 25.79026,21.315075 c -0.479356,-0.772353 -1.209738,-2.430833 -2.095313,-4.757845 -0.508234,-1.335479 -1.190434,-3.06551 -1.516001,-3.844512 -0.620775,-1.485372 -0.714467,-2.068092 -0.411218,-2.55758 0.368045,-0.594074 0.974126,-0.2677975 1.453005,0.782208 0.330406,0.724459 0.421319,0.703311 0.512209,-0.11915 0.264965,-2.3976339 1.200717,-3.9735355 2.359441,-3.9735355 0.859744,0 1.645669,1.0564939 2.917533,3.9219505 0.328761,0.740686 0.966093,2.026988 1.41629,2.85845 1.037817,1.916726 1.303707,2.588788 1.203623,3.04227 -0.111648,0.505875 -0.397051,0.808653 -0.762247,0.808653 -0.256275,0 -0.398183,-0.135476 -0.721773,-0.689066 -0.837037,-1.431983 -1.363703,-2.481923 -2.33183,-4.648661 -0.992595,-2.2214934 -1.461733,-2.9768035 -1.80282,-2.9025379 -0.241496,0.052585 -0.678663,0.8091299 -0.848187,1.4678559 -0.07865,0.305583 -0.134124,1.275087 -0.128429,2.244254 0.01279,2.176081 0.245217,3.199609 1.271556,5.599374 0.659725,1.542557 0.756044,1.858378 0.68935,2.260306 -0.07951,0.479171 -0.430392,0.868506 -0.782727,0.868506 -0.109146,0 -0.299253,-0.162423 -0.422462,-0.36094 z"
       id="path918"
       inkscape:connector-curvature="0" />
    <path
       style="opacity:1;fill:none;fill-opacity:1;stroke:#e70000;stroke-width:0.12343843;stroke-opacity:1"
       d="m 25.785388,21.345535 c -0.37306,-0.536202 -1.207212,-2.446807 -2.265981,-5.19018 -0.544995,-1.412133 -1.202737,-3.06277 -1.461649,-3.668083 -0.531376,-1.242311 -0.617014,-2.039749 -0.258448,-2.406621 0.46882,-0.4796813 0.900204,-0.2146416 1.48411,0.911831 l 0.326963,0.630775 0.141572,-1.035204 c 0.330659,-2.4178457 1.170099,-3.7433925 2.370609,-3.7433925 0.792815,0 1.538595,0.9713151 2.762622,3.5980805 0.534169,1.146331 1.318864,2.740027 1.743764,3.541547 0.890377,1.679576 1.057974,2.074945 1.057974,2.49579 0,0.475618 -0.426686,0.995906 -0.816738,0.995906 -0.278629,0 -0.412214,-0.127969 -0.787806,-0.754692 -0.683205,-1.140013 -1.689854,-3.154547 -2.578742,-5.160648 -0.835519,-1.8856568 -1.246777,-2.4488062 -1.622362,-2.2215511 -0.345384,0.2089823 -0.689777,1.2019771 -0.818073,2.3587621 -0.241092,2.173844 0.222355,4.569548 1.395095,7.21168 0.641977,1.446348 0.706534,1.900123 0.344379,2.420652 -0.305974,0.43978 -0.717672,0.445989 -1.017289,0.01535 z"
       id="path920"
       inkscape:connector-curvature="0" />
    <path
       style="opacity:1;fill:none;fill-opacity:1;stroke:#e70000;stroke-width:0.12343843;stroke-opacity:1"
       d="m 25.726625,21.249449 c -0.394648,-0.593475 -1.145673,-2.325333 -2.436706,-5.619016 -0.606625,-1.547621 -1.237433,-3.138701 -1.401798,-3.535736 -0.52408,-1.265953 -0.336807,-2.2312651 0.43287,-2.2312651 0.228762,0 0.39926,0.1402771 0.654297,0.5383221 0.189704,0.296078 0.376638,0.651312 0.415404,0.789412 0.111946,0.398767 0.248869,0.177174 0.332864,-0.538703 0.197041,-1.6793386 0.853639,-3.1872157 1.57031,-3.6062164 0.465967,-0.2724273 1.156164,-0.2526665 1.554838,0.044516 0.488242,0.3639497 1.213414,1.5334163 1.981509,3.1955304 0.376236,0.814154 1.151639,2.37996 1.723117,3.479569 1.231044,2.368711 1.342484,2.837893 0.815548,3.43364 -0.419854,0.474681 -0.73137,0.428395 -1.124067,-0.167022 -0.498029,-0.755122 -1.655,-3.019504 -2.388807,-4.67528 -1.282104,-2.8929658 -1.6545,-3.3838707 -2.115773,-2.7890824 -0.456755,0.5889614 -0.589823,1.1434134 -0.646263,2.6927904 -0.09141,2.509088 0.173936,3.782634 1.35757,6.515952 0.648671,1.497952 0.72075,2.022082 0.351139,2.553327 -0.332567,0.478 -0.724036,0.448628 -1.076052,-0.08072 z"
       id="path922"
       inkscape:connector-curvature="0" />
    <path
       style="opacity:1;fill:none;fill-opacity:1;stroke:#e70000;stroke-width:0.12343843;stroke-opacity:1"
       d="m 25.804857,21.380702 c -0.490536,-0.618856 -0.86669,-1.505692 -3.827346,-9.023502 -0.4899,-1.243975 -0.518527,-1.967106 -0.09286,-2.345661 0.399293,-0.3550984 0.712585,-0.2141928 1.154371,0.519182 0.192031,0.318778 0.399921,0.596862 0.461978,0.617966 0.06205,0.0211 0.173954,-0.333273 0.248661,-0.787506 0.37156,-2.2592052 1.196363,-3.5165205 2.306851,-3.5165205 0.952111,0 1.478809,0.6982457 3.168149,4.2000305 0.574614,1.191103 1.336958,2.722527 1.694095,3.403166 0.91215,1.738394 0.973034,2.435815 0.258829,2.964889 -0.228593,0.169339 -0.33871,0.1823 -0.535783,0.06306 -0.36554,-0.221181 -1.334436,-1.972789 -2.64115,-4.774791 -1.186257,-2.5437 -1.658988,-3.3625835 -1.941181,-3.3625835 -0.24558,0 -0.620673,0.6791635 -0.807927,1.4628775 -0.116384,0.48709 -0.157802,1.226402 -0.134964,2.409025 0.03005,1.555883 0.06934,1.827722 0.445749,3.084396 0.227041,0.757975 0.653135,1.934945 0.946879,2.615493 0.589438,1.365611 0.654391,1.901215 0.293473,2.419967 -0.294955,0.423942 -0.686127,0.443745 -0.99782,0.05051 z"
       id="path924"
       inkscape:connector-curvature="0" />
    <path
       style="opacity:1;fill:none;fill-opacity:1;stroke:#e70000;stroke-width:0.12343843;stroke-opacity:1"
       d="m 25.795815,21.380702 c -0.399196,-0.48489 -1.088639,-2.049813 -2.695039,-6.117301 -0.836977,-2.119269 -1.527802,-4.038814 -1.535164,-4.265654 -0.01968,-0.606023 0.107546,-0.945505 0.413358,-1.1030379 0.3884,-0.2000768 0.750536,0.04219 1.203406,0.8050739 0.215467,0.362966 0.395324,0.558232 0.420644,0.456683 0.02433,-0.09757 0.105251,-0.561309 0.179831,-1.030532 0.294999,-1.8560043 1.240484,-3.2897571 2.179081,-3.3044031 1.012909,-0.015803 1.545527,0.6402074 3.055829,3.7637821 0.523563,1.08282 1.226946,2.50033 1.563077,3.150022 1.342559,2.594982 1.429648,3.196782 0.540155,3.732601 -0.236006,0.142168 -0.319578,0.12948 -0.580454,-0.08812 -0.392004,-0.326981 -1.446854,-2.273887 -2.74652,-5.069162 -1.057312,-2.274036 -1.531522,-3.0281637 -1.824296,-2.901145 -0.611872,0.2654582 -0.982978,2.42949 -0.793261,4.625741 0.128143,1.483428 0.371153,2.382098 1.237303,4.575634 0.687686,1.741577 0.752733,2.196387 0.388912,2.71931 -0.294952,0.423938 -0.683389,0.443425 -1.006862,0.05051 z"
       id="path926"
       inkscape:connector-curvature="0" />
    <path
       style="opacity:1;fill:none;fill-opacity:1;stroke:#e70000;stroke-width:0.12343843;stroke-opacity:1"
       d="m 25.710352,21.261166 c -0.169815,-0.228167 -0.533543,-0.922156 -0.808285,-1.5422 -0.686636,-1.549613 -3.265045,-8.131979 -3.358847,-8.574732 -0.0999,-0.471504 0.184017,-1.2301157 0.50324,-1.3446644 0.317553,-0.1139486 0.739587,0.1939515 1.079959,0.7879014 0.142999,0.249535 0.31066,0.435398 0.372581,0.413032 0.06191,-0.02237 0.179679,-0.415479 0.261688,-0.873583 0.303796,-1.6969884 1.064545,-3.0261019 1.877282,-3.2798143 0.745131,-0.2326085 1.353301,0.1128012 2.021397,1.1480485 0.375709,0.5821792 3.118328,5.9997608 3.743764,7.3951748 0.371587,0.829048 0.371191,1.473772 -0.0011,1.894746 -0.730427,0.825814 -1.087133,0.312559 -4.063336,-5.846632 -0.93146,-1.927638 -1.217036,-2.2394533 -1.592729,-1.7390753 -0.431264,0.5743883 -0.571979,1.4026383 -0.55339,3.2572493 0.02161,2.15602 0.174684,2.880705 1.115132,5.279329 0.775542,1.978027 0.883041,2.655128 0.495576,3.121424 -0.361271,0.434775 -0.721275,0.403084 -1.092871,-0.0962 z"
       id="path928"
       inkscape:connector-curvature="0" />
    <path
       style="opacity:1;fill:none;fill-opacity:1;stroke:#e70000;stroke-width:0.15058824;stroke-opacity:1"
       d=""
       id="path930"
       inkscape:connector-curvature="0"
       transform="translate(0,-37.795276)" />
    <path
       style="opacity:1;fill:none;fill-opacity:1;stroke:#e70000;stroke-width:0.15058824;stroke-opacity:1"
       d=""
       id="path932"
       inkscape:connector-curvature="0"
       transform="translate(0,-37.795276)" />
    <path
       style="opacity:1;fill:none;fill-opacity:1;stroke:#e70000;stroke-width:0.15058824;stroke-opacity:1"
       d=""
       id="path934"
       inkscape:connector-curvature="0"
       transform="translate(0,-37.795276)" />
    <path
       style="opacity:1;fill:none;fill-opacity:1;stroke:#e70000;stroke-width:0.15058824;stroke-opacity:1"
       d=""
       id="path936"
       inkscape:connector-curvature="0"
       transform="translate(0,-37.795276)" />
    <path
       style="opacity:1;fill:none;fill-opacity:1;stroke:#e70000;stroke-width:0.15058824;stroke-opacity:1"
       d=""
       id="path938"
       inkscape:connector-curvature="0"
       transform="translate(0,-37.795276)" />
    <path
       style="opacity:1;fill:none;fill-opacity:1;stroke:#e70000;stroke-width:0.15058824;stroke-opacity:1"
       d=""
       id="path940"
       inkscape:connector-curvature="0"
       transform="translate(0,-37.795276)" />
    <path
       style="opacity:1;fill:none;fill-opacity:1;stroke:#e70000;stroke-width:0.15058824;stroke-opacity:1"
       d=""
       id="path942"
       inkscape:connector-curvature="0"
       transform="translate(0,-37.795276)" />
    <path
       style="opacity:1;fill:none;fill-opacity:1;stroke:#e70000;stroke-width:0.15058824;stroke-opacity:1"
       d=""
       id="path944"
       inkscape:connector-curvature="0"
       transform="translate(0,-37.795276)" />
    <path
       style="opacity:1;fill:none;fill-opacity:1;stroke:#e70000;stroke-width:0.15058824;stroke-opacity:1"
       d=""
       id="path946"
       inkscape:connector-curvature="0"
       transform="translate(0,-37.795276)" />
    <path
       style="opacity:1;fill:none;fill-opacity:1;stroke:#e70000;stroke-width:0.15058824;stroke-opacity:1"
       d=""
       id="path948"
       inkscape:connector-curvature="0"
       transform="translate(0,-37.795276)" />
    <path
       style="opacity:1;fill:none;fill-opacity:1;stroke:#e70000;stroke-width:0.15058824;stroke-opacity:1"
       d=""
       id="path950"
       inkscape:connector-curvature="0"
       transform="translate(0,-37.795276)" />
    <path
       style="opacity:1;fill:none;fill-opacity:1;stroke:#e70000;stroke-width:0.15058824;stroke-opacity:1"
       d=""
       id="path952"
       inkscape:connector-curvature="0"
       transform="translate(0,-37.795276)" />
    <path
       style="opacity:1;fill:none;fill-opacity:1;stroke:#e70000;stroke-width:0.15058824;stroke-opacity:1"
       d="M 7.7422635,65.307669 C 4.1889459,60.208116 1.2302236,55.9503 1.1673249,55.845853 1.0893375,55.71635 10.619213,47.138951 31.129757,28.878056 47.671993,14.150215 61.242515,2.133038 61.286472,2.1732179 61.3561,2.2368624 74.128726,20.543795 74.324419,20.86043 74.365339,20.92664 63.91076,30.317891 51.092019,41.729871 38.273278,53.141852 24.729182,65.201574 20.994029,68.529255 l -6.791188,6.050328 z m 9.9450025,4.297813 c 0.510423,-0.728732 0.152484,-1.993596 -1.852568,-6.546508 -0.649415,-1.474638 -1.285509,-2.952883 -1.413542,-3.284987 l -0.232788,-0.603825 1.113718,-1.244768 c 1.197594,-1.338516 1.374146,-1.852285 0.879298,-2.55878 -0.379064,-0.541189 -0.77949,-0.401773 -1.870081,0.651104 l -1.021099,0.985788 -0.319553,-1.184278 c -0.560859,-2.078571 -0.400987,-3.331892 0.565412,-4.432559 0.596542,-0.679423 0.725873,-1.286736 0.40582,-1.905648 -0.362842,-0.701661 -0.805407,-0.625486 -1.657299,0.285255 -1.123421,1.201029 -1.368071,1.882281 -1.3502,3.759771 0.01298,1.363783 0.08882,1.818237 0.551592,3.305402 l 0.536542,1.724223 -0.653434,0.726776 c -0.775715,0.862782 -0.927774,1.389047 -0.616562,2.133883 0.304719,0.729294 0.733701,0.714027 1.516406,-0.05397 l 0.608053,-0.596624 1.265954,2.893095 c 0.696276,1.591203 1.509452,3.570742 1.807059,4.398977 0.297608,0.828236 0.595928,1.590589 0.662933,1.694118 0.196057,0.302925 0.819069,0.217999 1.074339,-0.146448 z m 5.197893,-7.19155 c 0.344366,-0.184299 0.612384,-0.923947 0.502175,-1.385853 -0.04581,-0.192 -0.485946,-1.256684 -0.978079,-2.365967 -0.492133,-1.109282 -1.194214,-2.821617 -1.560183,-3.805187 -0.952246,-2.559244 -1.283846,-3.204355 -1.675773,-3.260137 -0.459932,-0.06546 -0.950436,0.473324 -0.950436,1.043995 0,0.804523 3.284062,8.97463 3.881746,9.657029 0.264768,0.302294 0.396157,0.321841 0.78055,0.11612 z m 3.947024,-3.113577 c 0.446888,-0.404427 0.332815,-1.166408 -0.567183,-3.788665 -0.786169,-2.2906 -0.848598,-2.575694 -0.923311,-4.21647 -0.116455,-2.557431 0.292177,-4.177805 0.921799,-3.655265 0.115519,0.09587 0.923434,1.611934 1.795367,3.369026 2.213944,4.461475 2.62737,4.96194 3.433254,4.156057 0.620036,-0.620037 0.374842,-1.415227 -1.745005,-5.659252 -2.165755,-4.335931 -2.663174,-5.015033 -3.673344,-5.015033 -1.188619,0 -1.904455,1.052934 -2.498714,3.675398 l -0.0992,0.437753 -0.453929,-0.550694 c -0.716569,-0.869323 -1.408712,-0.704221 -1.580654,0.377047 -0.08271,0.520134 0.616605,2.495345 2.582486,7.294192 1.337442,3.264786 1.664029,3.825128 2.229415,3.825128 0.166995,0 0.42755,-0.112149 0.579014,-0.249222 z m 7.142255,-7.546025 c 0.259011,-0.172946 0.511955,-0.732443 0.511955,-1.13241 0,-0.20016 -0.40226,-1.255477 -0.893913,-2.345148 -0.491652,-1.089672 -1.312516,-3.081888 -1.824143,-4.427148 -0.511625,-1.345262 -1.059501,-2.581008 -1.217501,-2.746104 -0.264156,-0.276017 -0.31958,-0.282039 -0.688761,-0.07482 -0.795047,0.446249 -0.753363,0.916861 0.33488,3.780748 1.020496,2.685606 2.493085,6.129916 2.873644,6.721309 0.218154,0.339013 0.592335,0.431573 0.903839,0.223577 z M 17.901506,49.145958 c 0.720842,-0.773733 0.408665,-2.418497 -0.478337,-2.520204 -0.540791,-0.06201 -0.813726,0.169767 -1.001733,0.850668 -0.378904,1.372281 0.662545,2.547047 1.48007,1.669536 z m 20.166097,-0.82701 c 1.519018,-0.756958 2.969546,-2.889445 3.149158,-4.629719 0.106737,-1.034184 -0.156217,-2.145985 -0.716508,-3.029469 -0.923749,-1.456601 -2.042824,-1.651371 -4.013265,-0.698486 -0.671618,0.324786 -1.260975,0.550668 -1.309683,0.50196 -0.326278,-0.326278 0.113835,-1.778933 1.041586,-3.437908 l 0.563117,-1.006946 0.36899,0.47148 c 0.202943,0.259314 0.460806,0.471481 0.573027,0.471481 0.326701,0 0.828251,-0.753381 0.828251,-1.244122 0,-0.53147 -1.104978,-2.607202 -1.500609,-2.818938 -0.40874,-0.218751 -0.983984,0.307525 -1.536184,1.405418 -0.256125,0.509233 -0.758548,1.435027 -1.116494,2.057322 -0.682145,1.18592 -1.117302,2.540214 -1.117302,3.477272 0,0.976813 0.556558,2.478917 1.08244,2.921418 0.593729,0.49959 1.143068,0.430232 2.480851,-0.313231 1.084693,-0.602809 1.761142,-0.659113 2.262298,-0.188302 0.655419,0.615736 0.434745,1.668444 -0.58067,2.770039 -0.75307,0.816987 -1.392519,1.183629 -1.990974,1.141572 -0.660439,-0.04641 -0.995121,0.349467 -0.995121,1.177085 0,1.358672 0.98836,1.738856 2.527092,0.972074 z m 6.409847,-6.46194 c 0.575562,-0.575563 0.315939,-1.955081 -0.901515,-4.790218 l -0.530269,-1.234861 0.04978,-2.032941 c 0.04439,-1.812867 0.09053,-2.113515 0.426246,-2.777246 0.207059,-0.409367 0.499616,-0.815955 0.650128,-0.90353 0.394214,-0.22937 0.878805,0.430011 1.54304,2.099599 0.892369,2.243018 2.67894,5.369123 3.177878,5.560584 0.361621,0.138767 0.766668,-0.175167 0.952498,-0.738239 0.211703,-0.641465 0.130962,-0.915562 -0.641441,-2.177518 -0.332171,-0.542704 -1.232041,-2.240744 -1.999711,-3.773427 -1.435999,-2.867021 -1.779191,-3.377989 -2.436742,-3.62799 -0.508148,-0.193197 -0.859157,-0.06323 -1.574378,0.582926 -0.790348,0.714032 -1.160719,1.480147 -1.466416,3.033293 l -0.25295,1.285154 -0.957916,-2.40651 c -1.038061,-2.607855 -1.713601,-4.062659 -2.078945,-4.477096 -0.365417,-0.414523 -0.895447,-0.331972 -1.160589,0.180757 -0.344875,0.666914 -0.291146,0.965748 0.443983,2.469404 0.849553,1.737703 4.915484,11.441144 5.338135,12.739589 0.173823,0.534009 0.400027,1.024265 0.502676,1.089458 0.292395,0.185704 0.671473,0.143851 0.916513,-0.101188 z M 28.988541,38.468749 c 0.149404,-0.165089 0.301784,-0.621549 0.339327,-1.016471 0.123717,-1.30135 -0.907183,-2.037969 -1.607016,-1.148276 -0.915229,1.163525 0.298345,3.235861 1.267689,2.164747 z M 53.73889,33.057677 c 0.908196,-0.463327 2.082831,-1.839636 2.738119,-3.208227 0.943298,-1.970108 0.952772,-3.721404 0.02086,-3.854963 -0.516145,-0.07397 -0.727107,0.195101 -0.829269,1.057696 -0.292596,2.470521 -2.652012,4.677319 -4.108393,3.842644 -0.315043,-0.180555 -0.305756,-0.21474 0.724758,-2.667604 0.574141,-1.366588 1.209045,-2.971007 1.410898,-3.565375 0.83008,-2.444221 0.167357,-4.56639 -1.426017,-4.56639 -1.252109,0 -2.877393,1.388144 -3.490721,2.981402 -0.50132,1.302294 -0.570254,3.754707 -0.15451,5.496919 0.952616,3.992007 2.838122,5.645106 5.114278,4.483898 z m 7.681422,-7.379548 c 0.312939,-0.15965 0.825059,-0.573722 1.138047,-0.920161 0.537009,-0.594406 1.288049,-1.965053 1.29127,-2.356572 9.03e-4,-0.118727 0.171753,-0.151135 0.50847,-0.09649 0.413673,0.06713 0.552272,0.01764 0.752941,-0.268857 0.385361,-0.550181 0.300029,-0.974451 -0.492556,-2.449009 -1.061518,-1.974891 -2.355215,-5.060625 -3.859007,-9.204521 -1.477447,-4.0713004 -1.693338,-4.5733452 -2.066024,-4.8044534 -0.344512,-0.2136362 -0.740952,0.028104 -0.933828,0.5694273 -0.187829,0.5271549 -0.0039,1.1915449 1.190584,4.3012271 l 0.957932,2.493799 -0.644096,0.08003 c -1.22632,0.152369 -2.499953,1.569609 -3.040655,3.383501 -0.358006,1.200999 -0.359677,3.565862 -0.0035,4.894118 0.331969,1.237832 1.021284,2.723194 1.606888,3.462581 0.886203,1.118922 2.425783,1.511105 3.593493,0.915384 z"
       id="path996"
       inkscape:connector-curvature="0"
       transform="translate(0,-37.795276)" />
    <path
       style="opacity:1;fill:none;fill-opacity:1;stroke:#e70000;stroke-width:0.15058824;stroke-opacity:1"
       d="M 7.7638711,65.083729 1.342116,55.860165 2.3665301,54.881342 C 4.8177907,52.539172 23.801527,35.563831 44.801688,16.935638 51.096276,11.352023 57.330629,5.8191617 58.655806,4.6403904 c 1.325176,-1.1787713 2.477176,-2.1336467 2.56,-2.1219452 0.157634,0.022271 0.892342,1.0568591 8.258126,11.6287778 2.481347,3.561412 4.518364,6.552757 4.526707,6.647434 0.01686,0.19141 -2.367354,2.37754 -11.806742,10.825798 -10.44382,9.347224 -47.649034,42.464819 -47.835858,42.580282 -0.110324,0.06818 -2.484986,-3.214989 -6.5941679,-9.117008 z m 9.8776039,4.718683 c 0.797463,-0.646804 0.425081,-1.978605 -2.340451,-8.370482 l -0.97731,-2.258824 0.576424,-0.602353 c 1.016599,-1.062329 1.666255,-2.032313 1.666255,-2.487842 0,-0.237508 -0.156442,-0.613708 -0.347647,-0.835997 -0.460183,-0.534993 -0.820311,-0.414999 -1.929372,0.642866 -0.470979,0.449238 -0.895574,0.753292 -0.943544,0.675676 -0.04797,-0.07762 -0.189024,-0.573001 -0.313454,-1.100853 -0.418128,-1.773759 -0.26247,-2.830573 0.579505,-3.934458 0.205616,-0.269577 0.448295,-0.685952 0.539287,-0.925281 0.285826,-0.751778 -0.221869,-1.747052 -0.891181,-1.747052 -0.288218,0 -1.519873,1.239165 -1.937174,1.948985 -0.387479,0.659093 -0.403059,0.769913 -0.392869,2.794544 0.0098,1.937407 0.04835,2.222237 0.476405,3.515141 l 0.465794,1.406904 -0.51327,0.568129 c -0.740602,0.819757 -0.98953,1.491793 -0.802916,2.167651 0.139627,0.505689 0.496384,0.850411 0.880102,0.850411 0.08803,0 0.433099,-0.24668 0.76682,-0.548177 0.333722,-0.301498 0.627961,-0.521733 0.653864,-0.489412 0.113721,0.141895 2.291122,5.31611 2.899228,6.889511 0.368749,0.954097 0.744127,1.823493 0.834171,1.931989 0.232079,0.279637 0.637577,0.24451 1.051333,-0.09108 z m 5.48235,-7.460108 c 0.58451,-0.584509 0.487661,-1.19837 -0.592275,-3.754036 -0.529047,-1.251986 -1.26931,-3.065181 -1.645031,-4.029322 -1.185735,-3.04274 -1.49988,-3.444961 -2.287521,-2.92888 -0.591503,0.387569 -0.609038,1.037443 -0.06944,2.573628 0.693646,1.974754 2.212468,5.709102 2.817356,6.927059 0.838541,1.68843 1.112943,1.875524 1.776915,1.211551 z m 3.782244,-3.029301 c 0.495875,-0.495875 0.447486,-0.832616 -0.582715,-4.055191 -0.769452,-2.406924 -0.770262,-2.411589 -0.783604,-4.517647 -0.01268,-2.001845 0.166846,-3.087059 0.510697,-3.087059 0.06107,0 0.912898,1.559522 1.89294,3.465606 1.742381,3.388754 2.489427,4.515571 2.993689,4.515571 0.137537,0 0.424869,-0.174803 0.638517,-0.388452 0.335624,-0.335623 0.376405,-0.476355 0.299861,-1.0348 -0.110731,-0.807874 -0.972603,-2.784827 -2.532529,-5.80909 -1.383891,-2.682981 -2.075654,-3.706671 -2.655229,-3.929275 -0.562429,-0.216021 -1.356711,-0.0616 -1.805179,0.350947 -0.466715,0.429333 -1.026587,1.602206 -1.258638,2.636711 l -0.176319,0.786041 -0.509353,-0.447217 c -0.580576,-0.509753 -0.954159,-0.563259 -1.282531,-0.183689 -0.599325,0.692765 -0.432452,1.435815 1.310477,5.835294 2.486617,6.276684 2.904182,6.897984 3.939916,5.86225 z m 7.133151,-7.445884 c 0.157282,-0.08417 0.363836,-0.412946 0.459008,-0.730601 0.159416,-0.532084 0.124994,-0.694914 -0.437197,-2.068131 C 33.7254,48.248571 32.872584,46.162252 32.165886,44.432124 30.57989,40.54932 30.450384,40.37914 29.594141,41.052659 c -0.382228,0.300662 -0.408811,0.38872 -0.334553,1.108209 0.08689,0.841853 1.26371,4.034441 2.686125,7.287158 1.121457,2.564494 1.343154,2.82067 2.093507,2.419093 z M 17.689058,49.517211 c 0.378821,-0.145368 0.684393,-0.876529 0.684393,-1.637589 0,-0.774779 -0.48348,-1.431222 -1.054117,-1.431222 -0.173177,0 -0.481197,0.166332 -0.684492,0.369626 -0.304293,0.304293 -0.369626,0.51844 -0.369626,1.211551 0,0.693111 0.06533,0.907258 0.369626,1.21155 0.37753,0.37753 0.622598,0.441711 1.054216,0.276084 z M 37.734862,48.60612 c 0.521362,-0.17682 1.013975,-0.523984 1.656017,-1.167059 1.005342,-1.006958 1.628681,-2.129296 1.899386,-3.419892 0.317464,-1.513517 -0.409787,-3.539477 -1.582446,-4.408342 -0.655286,-0.485527 -1.86338,-0.416463 -3.213725,0.183717 -0.593647,0.263856 -1.118824,0.479738 -1.167059,0.479738 -0.331723,0 0.171856,-1.635394 0.920037,-2.987865 l 0.528261,-0.954923 0.407299,0.390217 c 0.498019,0.477133 0.627632,0.483593 1.031055,0.05139 0.692829,-0.742253 0.568114,-1.556613 -0.492249,-3.214227 -0.927581,-1.450041 -1.409172,-1.117043 -3.1101,2.150495 -1.582693,3.040403 -1.788049,4.271736 -1.01292,6.07357 0.659643,1.533383 1.385743,1.721676 3.241219,0.840515 0.627849,-0.298165 1.303924,-0.542118 1.502386,-0.542118 0.782273,0 1.222355,1.032831 0.790233,1.854606 -0.562694,1.070087 -1.762556,2.060688 -2.496003,2.060688 -1.002658,0 -1.557075,1.110878 -1.078563,2.161098 0.319376,0.700955 1.011921,0.843585 2.177172,0.448387 z m 6.840943,-6.675367 c 0.584173,-0.584173 0.304459,-2.18374 -0.849738,-4.859317 l -0.534702,-1.239507 0.06412,-2.032941 c 0.05319,-1.686575 0.117944,-2.137285 0.380038,-2.645369 0.452924,-0.878015 0.682623,-1.035485 0.999575,-0.685257 0.140575,0.155334 0.655968,1.174055 1.145315,2.263823 0.964781,2.148551 2.104218,4.173571 2.725796,4.844315 0.616001,0.664725 1.291027,0.318562 1.548718,-0.794204 0.06963,-0.300693 -0.05602,-0.68833 -0.488122,-1.505882 -0.32004,-0.605526 -1.270222,-2.420402 -2.111515,-4.033061 -1.540319,-2.952607 -2.165868,-3.834494 -2.806846,-3.957023 -0.949867,-0.18158 -2.289771,1.110495 -2.772561,2.673587 -0.171512,0.555291 -0.31184,1.126716 -0.31184,1.269835 0,0.723113 -0.289159,0.245634 -1.202706,-1.985983 -1.545309,-3.774899 -1.884244,-4.306065 -2.628487,-4.119271 -0.385518,0.09676 -0.837042,0.76554 -0.837042,1.239798 0,0.143146 0.467732,1.315453 1.039402,2.605125 1.415505,3.193338 2.450837,5.645115 4.071435,9.641584 0.754155,1.859786 1.454383,3.434278 1.55606,3.498871 0.317376,0.201621 0.700012,0.133968 1.013103,-0.179123 z M 29.114323,38.433374 c 0.457614,-0.615222 0.438403,-1.780849 -0.03771,-2.287925 -0.44049,-0.469135 -0.747206,-0.488794 -1.26549,-0.08111 -0.70948,0.558077 -0.717711,1.800067 -0.01658,2.501202 0.461169,0.461169 0.912023,0.41602 1.319775,-0.132165 z m 24.572071,-5.216212 c 2.324922,-1.057701 4.601875,-6.185917 3.186689,-7.177152 -0.706462,-0.494825 -1.189129,-0.09877 -1.380873,1.133095 -0.285136,1.831863 -1.964765,3.770838 -3.259163,3.762401 -0.848907,-0.0055 -0.837019,-0.09403 0.447496,-3.33153 1.250674,-3.152206 1.523466,-4.035435 1.528389,-4.948518 0.0072,-1.327745 -0.684344,-2.477831 -1.59223,-2.648151 -1.154995,-0.216679 -3.008286,1.045141 -3.744169,2.54923 -1.262617,2.580697 -0.581264,7.674645 1.315496,9.834936 0.267625,0.304807 0.689886,0.678174 0.93836,0.829705 0.584931,0.356716 1.771174,0.354855 2.560005,-0.004 z M 61.04746,25.95499 c 0.833547,-0.231443 1.925719,-1.319513 2.523371,-2.513892 0.451212,-0.901728 0.549204,-1.006533 0.902798,-0.965558 0.559628,0.06485 1.091663,-0.62158 0.967522,-1.248294 -0.04948,-0.249778 -0.591354,-1.504494 -1.204172,-2.788259 C 62.957038,15.757694 62.674084,15.067936 60.746704,9.9307519 59.969857,7.8601636 59.208687,5.9966342 59.055217,5.7895753 58.690918,5.2980749 58.258899,5.2455212 57.894556,5.6483856 c -0.510667,0.5646597 -0.359392,1.457355 0.740387,4.3691454 0.549828,1.455729 0.999686,2.692435 0.999686,2.748236 0,0.0558 -0.138229,0.101456 -0.307176,0.101456 -0.95357,0 -2.16735,1.125689 -2.915015,2.703455 -0.460307,0.971367 -0.467203,1.020494 -0.465954,3.320074 0.0012,2.290462 0.01059,2.357327 0.499781,3.574979 0.83749,2.084606 1.579369,2.986392 2.820601,3.428561 0.727034,0.258994 1.029312,0.269298 1.780594,0.0607 z"
       id="path998"
       inkscape:connector-curvature="0"
       transform="translate(0,-37.795276)" />
    <g
       id="g1003">
      <path
         transform="translate(0,-37.795276)"
         inkscape:connector-curvature="0"
         id="path1000"
         d="M 13.235359,72.552629 C 12.632256,71.736951 10.244855,68.358989 7.930024,65.046048 5.6151929,61.733106 3.2213947,58.310989 2.6104726,57.441342 L 1.4997052,55.860165 2.1643581,55.257812 C 12.945863,45.486891 22.650364,36.808373 43.74757,18.070879 L 57.4511,5.900081 57.55085,6.7865195 c 0.05486,0.487541 0.502549,2.0043243 0.994859,3.3706295 0.868398,2.410063 0.885613,2.48688 0.576923,2.574301 -1.09982,0.311468 -2.052964,1.246507 -2.805247,2.751959 -0.441356,0.883231 -0.447461,0.928971 -0.447461,3.352663 0,2.252516 0.0313,2.54036 0.375665,3.455264 0.863276,2.293516 1.715361,3.315786 3.13742,3.764049 0.71907,0.226667 0.918783,0.235186 1.526257,0.0651 0.922075,-0.258164 1.96452,-1.211032 2.699171,-2.46723 0.379168,-0.648346 0.679124,-0.997801 0.856468,-0.997801 0.150112,0 0.459797,-0.160736 0.688189,-0.357191 0.64302,-0.553101 0.534712,-1.050161 -0.915766,-4.202773 C 63.521655,16.539985 62.2036,13.355043 61.308315,11.017847 59.449232,6.1646027 59.159169,5.5397588 58.659641,5.3121579 58.309975,5.1528399 58.339884,5.1127627 59.666543,3.9628867 c 0.752,-0.6517919 1.419466,-1.1850762 1.48326,-1.1850762 0.189566,0 0.783849,0.8199615 5.511653,7.6047065 6.368143,9.138751 7.158367,10.302256 7.102582,10.457656 -0.136863,0.381241 -19.650228,17.870433 -49.894116,44.71846 -4.886588,4.337912 -9.0317,8.019847 -9.21136,8.182078 l -0.326653,0.29497 z m 4.440137,-2.623393 c 0.848562,-0.667478 0.505264,-2.082215 -1.841708,-7.589718 l -1.345877,-3.158295 0.816295,-0.881696 c 1.454437,-1.570965 1.72256,-2.582431 0.863658,-3.258044 -0.483857,-0.380601 -0.883962,-0.238312 -1.900932,0.676033 -0.414787,0.372927 -0.786793,0.645415 -0.826681,0.605527 -0.155137,-0.155137 -0.483223,-1.852863 -0.482317,-2.495819 10e-4,-0.721575 0.330718,-1.582208 0.962067,-2.511321 0.525663,-0.773582 0.533277,-1.723719 0.01794,-2.239053 -0.203294,-0.203294 -0.475867,-0.369626 -0.605717,-0.369626 -0.333211,0 -1.552827,1.15373 -2.06081,1.949482 -0.420049,0.658004 -0.427377,0.707704 -0.427377,2.898816 0,2.036573 0.03698,2.344328 0.427688,3.559283 l 0.427688,1.329947 -0.36516,0.439472 c -1.056491,1.271489 -1.25652,2.32215 -0.572355,3.006315 0.47819,0.47819 0.672489,0.465927 1.367383,-0.0863 0.315544,-0.250763 0.630376,-0.399273 0.699627,-0.330022 0.143542,0.143542 1.225454,2.669764 2.561605,5.981248 0.501277,1.242353 1.015302,2.377411 1.142278,2.522353 0.304705,0.347815 0.657859,0.332803 1.142703,-0.04858 z m 5.470735,-7.430343 c 0.75591,-0.650552 0.623622,-1.258785 -1.296458,-5.96085 -0.930022,-2.277521 -1.824963,-4.357786 -1.988758,-4.622814 -0.39315,-0.636128 -0.814531,-0.75931 -1.317424,-0.38512 -0.320628,0.238569 -0.404551,0.438329 -0.44082,1.049279 -0.03598,0.606139 0.104594,1.155682 0.714476,2.793017 1.364966,3.66449 2.660626,6.54778 3.213567,7.15129 0.394313,0.430378 0.591617,0.42599 1.115417,-0.0248 z m 3.762547,-3.009714 c 0.589173,-0.506787 0.540286,-1.024226 -0.383654,-4.060717 l -0.772849,-2.539939 0.01059,-2.203591 c 0.01111,-2.314725 0.103357,-2.918737 0.390487,-2.557014 0.08856,0.111559 0.822563,1.456482 1.63113,2.988718 2.335396,4.425576 2.795744,4.992903 3.615545,4.455749 0.60461,-0.396156 0.748082,-0.851571 0.53512,-1.698616 -0.412227,-1.639621 -3.49198,-7.764357 -4.49577,-8.940781 -0.596168,-0.698697 -1.241395,-0.870759 -2.029887,-0.541307 -0.860832,0.359678 -1.478706,1.39938 -2.013117,3.387491 -0.03864,0.14375 -0.186595,0.0899 -0.517135,-0.188235 -0.587544,-0.494386 -0.939458,-0.492488 -1.332499,0.0072 -0.590544,0.750755 -0.379365,1.674082 1.424692,6.229104 1.849835,4.670607 2.57702,6.023529 3.237602,6.023529 0.153667,0 0.468553,-0.162709 0.699749,-0.361574 z m 7.237079,-7.548748 c 0.405539,-0.28405 0.659224,-1.141755 0.500617,-1.692568 -0.176504,-0.61296 -3.005205,-7.522326 -3.435857,-8.392404 -0.432545,-0.8739 -0.758623,-1.28 -1.027774,-1.28 -0.105044,0 -0.406617,0.181439 -0.670163,0.403198 -0.452662,0.380889 -0.473753,0.444058 -0.381208,1.1417 0.103819,0.782627 0.879377,3.060271 1.807032,5.306867 1.887732,4.57171 2.298535,5.149768 3.207353,4.513207 z m -16.35211,-2.341799 c 0.697181,-0.37312 0.935291,-1.833347 0.433224,-2.656778 -0.367393,-0.602557 -0.923321,-0.767073 -1.442515,-0.426885 -0.511808,0.335351 -0.710638,0.908264 -0.627093,1.806923 0.05295,0.569587 0.163965,0.825616 0.473382,1.091765 0.44814,0.385474 0.71042,0.42719 1.163002,0.184975 z m 19.834364,-0.823937 c 1.542355,-0.458031 3.340392,-2.698642 3.762997,-4.689237 0.313059,-1.474606 -0.312787,-3.431505 -1.403812,-4.389438 -0.486068,-0.426773 -0.638511,-0.475321 -1.477908,-0.470672 -0.668853,0.0037 -1.252332,0.129988 -2.044678,0.442532 l -1.108742,0.437349 0.09483,-0.480179 c 0.05216,-0.264099 0.376602,-1.074435 0.720984,-1.800747 l 0.62615,-1.320567 0.395997,0.379391 c 0.48625,0.465857 0.617604,0.471076 1.020885,0.04057 0.757926,-0.809096 0.667011,-1.796367 -0.304714,-3.308964 -0.741334,-1.15397 -1.189606,-1.281195 -1.844572,-0.523511 -0.622008,0.719557 -1.948735,3.129273 -2.525344,4.586749 -0.36036,0.910872 -0.460944,1.39618 -0.460078,2.219844 0.0019,1.822004 0.960271,3.391979 2.066591,3.385479 0.258008,-0.0015 1.041949,-0.238691 1.742093,-0.527059 0.700143,-0.288366 1.390888,-0.524303 1.534989,-0.524303 0.342885,0 0.730846,0.56536 0.730846,1.065031 0,0.825912 -1.70162,2.549087 -2.5172,2.549087 -1.445521,0 -1.921517,2.235585 -0.628578,2.952206 0.468987,0.259941 0.674697,0.256947 1.61926,-0.02356 z m 6.908175,-6.622388 c 0.73596,-0.515486 0.575561,-1.961455 -0.523856,-4.722468 l -0.682913,-1.715031 0.07817,-1.927488 c 0.0638,-1.573154 0.139303,-2.053758 0.410695,-2.614379 0.182886,-0.377792 0.415407,-0.686894 0.51671,-0.686894 0.101306,0 0.672256,0.999529 1.26878,2.221176 2.052715,4.203844 2.789027,5.308236 3.539063,5.308236 0.235356,0 0.505078,-0.157912 0.707334,-0.414118 0.573677,-0.726695 0.374751,-1.41615 -1.357768,-4.705883 -2.661236,-5.053191 -3.136202,-5.722353 -4.061687,-5.722353 -1.05324,0 -2.507147,1.669039 -2.79623,3.20998 -0.05758,0.306929 -0.156663,0.590173 -0.220182,0.62943 -0.06352,0.03926 -0.610997,-1.094834 -1.216615,-2.520204 -1.239515,-2.917295 -1.778325,-3.690732 -2.453129,-3.521367 -0.539679,0.135451 -1.036276,0.938574 -0.930247,1.504442 0.04449,0.237433 0.785496,2.06708 1.646681,4.065883 0.861186,1.998804 2.224178,5.22666 3.028874,7.173013 1.590994,3.848215 1.837872,4.385932 2.090375,4.552989 0.264123,0.174744 0.599993,0.13435 0.95594,-0.114964 z M 29.0768,38.629395 c 0.379809,-0.379809 0.440181,-0.553779 0.440181,-1.268446 0,-0.671366 -0.07385,-0.916032 -0.389856,-1.291583 -0.452691,-0.537991 -0.776914,-0.579664 -1.301217,-0.167246 -0.852519,0.67059 -0.906862,1.947982 -0.116495,2.738349 0.542091,0.542092 0.816443,0.539869 1.367387,-0.01107 z m 24.415859,-5.193852 c 1.722877,-0.615067 3.702769,-3.654665 3.850513,-5.911438 0.06589,-1.006402 0.04433,-1.105933 -0.317971,-1.468235 -0.762527,-0.762528 -1.288178,-0.415414 -1.68177,1.110558 -0.3189,1.236384 -0.555883,1.687753 -1.323176,2.520167 -0.7056,0.765486 -1.269258,1.100628 -1.851089,1.100628 -0.362452,0 -0.394184,-0.04294 -0.316981,-0.428955 0.04718,-0.235925 0.532098,-1.592075 1.077584,-3.013664 1.3701,-3.570606 1.54768,-4.294296 1.320045,-5.379555 -0.214563,-1.022931 -0.489878,-1.479399 -1.136308,-1.88398 -1.340584,-0.839032 -3.917928,0.909544 -4.6392,3.147426 -0.662149,2.05444 -0.358978,5.525951 0.680963,7.797481 0.427033,0.932763 1.481922,2.132315 2.121713,2.412671 0.577455,0.253042 1.50181,0.251747 2.215677,-0.0031 z"
         style="opacity:1;fill:none;fill-opacity:1;stroke:#e70000;stroke-width:0.15058824;stroke-opacity:1" />
    </g>
  </g>
  <g
     inkscape:groupmode="layer"
     id="layer1"
     inkscape:label="Layer 1"
     style="display:inline"
     transform="translate(0,-436.40942)" />
</svg>
