<?xml version="1.0" encoding="UTF-8" standalone="no"?>
<!-- Created with Inkscape (http://www.inkscape.org/) -->

<svg
   xmlns:dc="http://purl.org/dc/elements/1.1/"
   xmlns:cc="http://creativecommons.org/ns#"
   xmlns:rdf="http://www.w3.org/1999/02/22-rdf-syntax-ns#"
   xmlns:svg="http://www.w3.org/2000/svg"
   xmlns="http://www.w3.org/2000/svg"
   xmlns:sodipodi="http://sodipodi.sourceforge.net/DTD/sodipodi-0.dtd"
   xmlns:inkscape="http://www.inkscape.org/namespaces/inkscape"
   version="1.1"
   id="svg4539"
   width="259"
   height="194"
   viewBox="0 0 259 194"
   sodipodi:docname="spanner.jpg"
   inkscape:version="0.92.1 r15371">
  <metadata
     id="metadata4545">
    <rdf:RDF>
      <cc:Work
         rdf:about="">
        <dc:format>image/svg+xml</dc:format>
        <dc:type
           rdf:resource="http://purl.org/dc/dcmitype/StillImage" />
        <dc:title></dc:title>
      </cc:Work>
    </rdf:RDF>
  </metadata>
  <defs
     id="defs4543">
    <inkscape:path-effect
       only_selected="false"
       apply_with_weight="true"
       apply_no_weight="true"
       helper_size="0"
       steps="2"
       weight="33.333333"
       is_visible="true"
       id="path-effect4647"
       effect="bspline" />
    <inkscape:path-effect
       effect="bspline"
       id="path-effect4643"
       is_visible="true"
       weight="33.333333"
       steps="2"
       helper_size="0"
       apply_no_weight="true"
       apply_with_weight="true"
       only_selected="false" />
    <inkscape:path-effect
       only_selected="false"
       apply_with_weight="true"
       apply_no_weight="true"
       helper_size="0"
       steps="2"
       weight="33.333333"
       is_visible="true"
       id="path-effect4639"
       effect="bspline" />
    <inkscape:path-effect
       effect="bspline"
       id="path-effect4635"
       is_visible="true"
       weight="33.333333"
       steps="2"
       helper_size="0"
       apply_no_weight="true"
       apply_with_weight="true"
       only_selected="false" />
    <inkscape:path-effect
       only_selected="false"
       apply_with_weight="true"
       apply_no_weight="true"
       helper_size="0"
       steps="2"
       weight="33.333333"
       is_visible="true"
       id="path-effect4631"
       effect="bspline" />
    <inkscape:path-effect
       effect="bspline"
       id="path-effect4585"
       is_visible="true"
       weight="33.333333"
       steps="2"
       helper_size="0"
       apply_no_weight="true"
       apply_with_weight="true"
       only_selected="false" />
  </defs>
  <sodipodi:namedview
     pagecolor="#ffffff"
     bordercolor="#666666"
     borderopacity="1"
     objecttolerance="10"
     gridtolerance="10"
     guidetolerance="10"
     inkscape:pageopacity="0"
     inkscape:pageshadow="2"
     inkscape:window-width="1920"
     inkscape:window-height="1017"
     id="namedview4541"
     showgrid="false"
     inkscape:zoom="2.2162162"
     inkscape:cx="119.4229"
     inkscape:cy="80.88617"
     inkscape:window-x="-8"
     inkscape:window-y="-8"
     inkscape:window-maximized="1"
     inkscape:current-layer="svg4539" />
  <g
     inkscape:groupmode="layer"
     id="layer5"
     inkscape:label="Layer 1"
     style="display:none" />
  <g
     style="display:none"
     inkscape:label="Layer 1 copy"
     id="g4587"
     inkscape:groupmode="layer" />
  <path
     style="fill:#800020;stroke:#000000;stroke-width:1px;stroke-linecap:butt;stroke-linejoin:miter;stroke-opacity:1;fill-opacity:1"
     d="m 41.931347,46.070775 c -3.232598,2.255301 -6.465425,4.510762 -9.28636,5.789907 -2.820935,1.279145 -5.226759,1.579873 -12.034159,-3.045869 C 13.803428,44.189071 2.672753,34.701851 2.1049387,38.713259 1.5371245,42.724667 11.54905,60.133463 19.671646,68.518718 c 8.122595,8.385255 14.289262,7.633223 21.019514,6.843643 6.730253,-0.78958 14.025839,-1.616914 23.049027,1.090086 9.023187,2.707 19.778873,8.94981 42.038493,23.50129 22.25962,14.551483 56.02687,37.413943 73.96264,50.574283 17.93577,13.16034 20.04148,16.61971 21.94695,20.6477 1.90548,4.02798 3.65953,8.7563 6.21688,12.14093 2.55735,3.38463 5.9411,5.49008 11.16788,5.90356 5.22677,0.41348 12.29644,-0.86508 15.86808,-1.84311 3.57164,-0.97804 3.64686,-1.65498 0.86912,-3.08142 -2.77775,-1.42644 -8.42714,-3.61087 -11.56723,-7.08978 -3.14008,-3.4789 -3.77925,-8.25385 -4.41837,-13.02841"
     id="path4583"
     inkscape:connector-curvature="0"
     inkscape:original-d="m 41.931347,46.070775 c -3.23274,2.255097 -6.465567,4.510558 -9.701219,6.768293 -2.406184,0.299897 -4.812008,0.600625 -7.219512,0.902438 C 13.804343,44.187998 2.6736675,34.700778 -8.6052377,25.089067 1.5383079,42.723986 11.550234,60.132782 21.62647,77.65614 c 6.167666,-0.753032 12.334332,-1.505065 18.499999,-2.256097 7.294845,-0.828137 14.590431,-1.655472 21.884147,-2.481707 10.753444,6.239929 21.50913,12.482739 32.262196,18.725609 33.766268,22.860125 67.533518,45.722585 101.298778,68.585375 2.10667,3.45833 4.21238,6.9177 6.31707,10.37805 1.73082,4.58678 3.46035,9.3242 5.18902,13.9878 3.38555,2.10494 6.7693,4.21039 10.15244,6.31708 7.06954,-1.27936 14.13921,-2.55791 21.20732,-3.83537 0.0762,-0.67772 0.15141,-1.35466 0.22561,-2.03049 -5.6301,-2.17836 -11.27949,-4.36279 -16.92073,-6.54268 -0.63829,-4.77686 -1.27746,-9.55181 -1.91769,-14.32622"
     sodipodi:nodetypes="cccccccccccccccc"
     inkscape:path-effect="#path-effect4585" />
  <path
     sodipodi:nodetypes="cccccccccccccccc"
     inkscape:original-d="m 45.651214,40.650806 c 0.941853,-3.8274 1.884014,-7.655005 2.827281,-11.486079 C 47.893123,26.811649 47.308664,24.458605 46.724604,22.103596 33.780577,15.082058 20.925576,8.107221 7.9011161,1.038841 28.003903,4.162848 47.848379,7.245352 67.822878,10.346671 c 1.515078,6.025912 3.030724,12.050544 4.546953,18.073881 1.850299,7.10471 3.701623,14.209828 5.553289,21.3128 9.68926,7.790485 19.382009,15.582015 29.07388,23.371088 33.47269,23.28787 66.94791,46.57584 100.42271,69.86182 3.98453,0.72224 7.96969,1.4432 11.95539,2.16286 4.90236,-0.0342 9.94482,-0.12385 14.91809,-0.18772 3.18151,2.40223 6.36286,4.80259 9.54514,7.20193 1.34824,7.05673 2.69729,14.11329 4.0468,21.168 -0.60499,0.31479 -1.20961,0.62838 -1.81356,0.94063 -4.05711,-4.47025 -8.12682,-8.95631 -12.18937,-13.43641 -4.68687,1.12205 -9.37229,2.24259 -14.05757,3.36194"
     inkscape:connector-curvature="0"
     id="path4629"
     d="M 45.651214,40.650806 C 46.593308,36.823465 47.535467,32.99586 47.714718,29.903649 47.89397,26.811439 47.309505,24.458396 40.545377,19.769609 33.781248,15.080821 20.926247,8.1059851 24.465179,6.1337429 c 3.538933,-1.9722422 23.383409,1.1102608 34.128515,5.6744441 10.745105,4.564184 12.260757,10.588814 13.944024,17.152833 1.683267,6.564019 3.534585,13.669139 9.305053,21.115444 5.770467,7.446306 15.463215,15.237837 37.045459,30.776278 21.58224,15.538441 55.05747,38.826398 73.78686,50.830408 18.72939,12.004 22.71455,12.72496 27.15829,13.05462 4.44373,0.32967 9.48652,0.26621 13.56434,1.43548 4.07782,1.16927 7.25916,3.56964 9.52441,8.29815 2.26524,4.72851 3.61428,11.78507 3.98594,15.4695 0.37166,3.68443 -0.23296,3.99802 -2.5628,1.91898 -2.32985,-2.07904 -6.39956,-6.5651 -10.77488,-8.24424 -4.37532,-1.67914 -9.06074,-0.5586 -13.74576,0.56185"
     style="fill:#800020;stroke:#000000;stroke-width:1px;stroke-linecap:butt;stroke-linejoin:miter;stroke-opacity:1;fill-opacity:1"
     inkscape:path-effect="#path-effect4631" />
  <path
     style="fill:#800020;stroke:#000000;stroke-width:1px;stroke-linecap:butt;stroke-linejoin:miter;stroke-opacity:1;fill-opacity:1"
     d="m 45.651214,40.650806 c -1.239169,1.80551 -2.479125,3.612166 -3.719867,5.419969"
     id="path4633"
     inkscape:connector-curvature="0"
     inkscape:path-effect="#path-effect4635"
     inkscape:original-d="m 45.651214,40.650806 c -1.238956,1.805656 -2.478911,3.612313 -3.719867,5.419969" />
  <path
     sodipodi:nodetypes="ccccccccccccccccc"
     inkscape:original-d="m 207.15661,46.070775 c 3.23274,2.255097 6.46557,4.510558 9.70122,6.768293 2.40618,0.299897 4.81201,0.600625 7.21951,0.902438 11.20627,-9.553508 22.33695,-19.040728 33.61586,-28.652439 -10.14355,17.634919 -20.15548,35.043715 -30.23171,52.567073 -6.16767,-0.753032 -12.33433,-1.505065 -18.5,-2.256097 -7.29485,-0.828137 -14.59043,-1.655472 -21.88415,-2.481707 -10.75344,6.239929 -21.50607,12.482124 -32.26219,18.725609 -10.2946,6.969389 -20.58914,13.939225 -30.88377,20.909105 -23.47197,15.89148 -46.943745,31.78413 -70.415013,47.67627 -2.104564,3.45814 -4.21238,6.9177 -6.31707,10.37805 -1.73082,4.58678 -3.46035,9.3242 -5.18902,13.9878 -3.38555,2.10494 -6.7693,4.21039 -10.15244,6.31708 -7.06954,-1.27936 -14.13921,-2.55791 -21.20732,-3.83537 -0.0762,-0.67772 -0.15141,-1.35466 -0.22561,-2.03049 5.6301,-2.17836 11.27949,-4.36279 16.92073,-6.54268 0.63829,-4.77686 1.27746,-9.55181 1.91769,-14.32622"
     inkscape:connector-curvature="0"
     id="path4637"
     d="m 207.15661,46.070775 c 3.2326,2.255301 6.46543,4.510763 9.28636,5.789907 2.82093,1.279145 5.22676,1.579873 12.03416,-3.045868 6.8074,-4.62574 17.93808,-14.112962 18.50589,-10.101554 0.56782,4.011408 -9.44411,21.420206 -17.56671,29.805459 -8.1226,8.385253 -14.28926,7.633222 -21.01951,6.843642 -6.73026,-0.78958 -14.02584,-1.616914 -23.04903,1.090086 -9.02318,2.706999 -19.77632,8.948328 -30.30169,15.554717 -10.52538,6.606389 -20.82,13.576106 -37.70315,25.007016 -16.88314,11.43091 -40.355145,27.32322 -53.143278,36.99816 -12.788133,9.67495 -14.894491,13.13539 -16.799967,17.16338 -1.905476,4.02798 -3.65953,8.7563 -6.216879,12.14093 -2.557349,3.38463 -5.941101,5.49008 -11.167877,5.90356 -5.226776,0.41348 -12.296445,-0.86508 -15.868085,-1.84311 -3.57164,-0.97804 -3.646856,-1.65498 -0.869113,-3.08142 2.777743,-1.42644 8.427133,-3.61087 11.567222,-7.08978 3.140089,-3.4789 3.779257,-8.25385 4.418374,-13.02841"
     style="fill:#800020;stroke:#000000;stroke-width:1px;stroke-linecap:butt;stroke-linejoin:miter;stroke-opacity:1;fill-opacity:1"
     inkscape:path-effect="#path-effect4639" />
  <path
     style="fill:#800020;stroke:#000000;stroke-width:1px;stroke-linecap:butt;stroke-linejoin:miter;stroke-opacity:1;fill-opacity:1"
     inkscape:original-d="m 203.43674,40.650806 c -0.94185,-3.8274 -1.88401,-7.655005 -2.82728,-11.486079 0.58537,-2.353078 1.16983,-4.706122 1.75389,-7.061131 12.94403,-7.021538 25.79903,-13.996375 38.82349,-21.064755 -20.10279,3.124007 -39.94726,6.206511 -59.92176,9.30783 -1.51508,6.025912 -3.03072,12.050544 -4.54695,18.073881 -1.8503,7.10471 -3.70163,14.209828 -5.55329,21.3128 -12.0967,9.443757 -36.29339,28.334503 -36.29339,28.334503 l -10.45041,7.276731 -20.02261,13.941962 -62.730183,43.679712 c 0,0 -7.96969,1.4432 -11.95539,2.16286 -4.90236,-0.0342 -9.94482,-0.12385 -14.91809,-0.18772 -3.18151,2.40223 -6.3628597,4.80259 -9.5451397,7.20193 -1.34824,7.05673 -2.69729,14.11329 -4.0468,21.168 0.60499,0.31479 1.20961,0.62838 1.81356,0.94063 4.05711,-4.47025 8.1268197,-8.95631 12.1893697,-13.43641 4.68687,1.12205 9.37229,2.24259 14.05757,3.36194"
     d="m 203.43674,40.650806 c -0.94209,-3.82734 -1.88425,-7.654945 -2.0635,-10.747156 -0.17925,-3.092211 0.40521,-5.445254 7.16934,-10.134042 6.76413,-4.688788 19.61913,-11.6636232 16.0802,-13.635865 -3.53894,-1.9722417 -23.38341,1.1102604 -34.12851,5.674445 -10.74511,4.564184 -12.26076,10.588813 -13.94403,17.152832 -1.68326,6.564019 -3.53458,13.66914 -10.50829,21.942683 -6.9737,8.273543 -19.0727,17.719318 -31.1705,27.164152 0,0 -10.45041,7.276731 -10.45041,7.276731 0,0 -20.02261,13.941962 -20.02261,13.941962 0,0 -62.730183,43.679712 -62.730183,43.679712 -3.98513,0.72095 -7.969935,1.44185 -12.413669,1.77151 -4.443735,0.32967 -9.486525,0.26621 -13.564341,1.43548 -4.077817,1.16927 -7.2591619,3.56964 -9.5244076,8.29815 -2.2652456,4.72851 -3.6142864,11.78507 -3.9859443,15.4695 -0.3716579,3.68443 0.23296,3.99802 2.5628071,1.91898 2.3298472,-2.07904 6.3995548,-6.5651 10.7748758,-8.24424 4.375322,-1.67914 9.060741,-0.5586 13.745759,0.56185"
     id="path4641"
     inkscape:connector-curvature="0"
     sodipodi:nodetypes="cccccccccccccccccc"
     inkscape:path-effect="#path-effect4643" />
  <path
     inkscape:original-d="m 203.43674,40.650806 c 1.23896,1.805656 2.47891,3.612313 3.71987,5.419969"
     inkscape:path-effect="#path-effect4647"
     inkscape:connector-curvature="0"
     id="path4645"
     d="m 203.43674,40.650806 c 1.23917,1.805511 2.47913,3.612165 3.71987,5.419969"
     style="fill:#800020;stroke:#000000;stroke-width:1px;stroke-linecap:butt;stroke-linejoin:miter;stroke-opacity:1;fill-opacity:1" />
</svg>
